<?xml version="1.0" encoding="iso-8859-1"?>
<!DOCTYPE svg PUBLIC "-//W3C//DTD SVG 1.1//EN" "http://www.w3.org/Graphics/SVG/1.1/DTD/svg11.dtd">
<svg 
 version="1.1" xmlns="http://www.w3.org/2000/svg" xmlns:xlink="http://www.w3.org/1999/xlink" x="0px" y="0px" width="512px"
	 height="512px" viewBox="0 0 512 512" style="enable-background:new 0 0 512 512;" xml:space="preserve"
><g id="7935ec95c421cee6d86eb22ecd1105ca"><g></g><path style="display: inline;" d="M511.5,110.614c0-50.31-31.547-93.222-75.922-110.114c10.799,17.798,17.021,38.687,17.021,61.026
		c0,9.486-1.147,18.701-3.269,27.538C402.48,34.854,333.273,0.5,256,0.5c-77.274,0-146.48,34.354-193.33,88.564
		c-2.121-8.836-3.269-18.052-3.269-27.538c0-22.339,6.221-43.228,17.021-61.026C32.046,17.392,0.5,60.304,0.5,110.614
		c0,21.121,5.589,40.928,15.324,58.07C5.915,195.926,0.5,225.331,0.5,256c0,141.107,114.393,255.5,255.5,255.5
		S511.5,397.107,511.5,256c0-30.669-5.414-60.074-15.324-87.316C505.911,151.542,511.5,131.735,511.5,110.614z M109.146,187.733
		c17.57,15.728,43.449,25.683,72.333,25.683c11.037,0,21.633-1.472,31.501-4.142C209.766,235.598,187.376,256,160.188,256
		c-29.396,0-53.229-23.833-53.229-53.229C106.958,197.543,107.744,192.508,109.146,187.733z M170.833,341.167h170.333
		c0,35.272-38.13,63.875-85.167,63.875S170.833,376.439,170.833,341.167z M351.376,256c-27.192,0-49.578-20.402-52.793-46.725
		c9.868,2.669,20.46,4.142,31.501,4.142c28.886,0,54.764-9.956,72.329-25.683c1.406,4.774,2.192,9.81,2.192,15.038
		C404.605,232.167,380.772,256,351.376,256z"></path></g></svg>