<?xml version="1.0" encoding="UTF-8" standalone="no"?>
<svg width="60px" height="60px" viewBox="0 0 60 60" version="1.1" xmlns="http://www.w3.org/2000/svg" xmlns:xlink="http://www.w3.org/1999/xlink" xmlns:sketch="http://www.bohemiancoding.com/sketch/ns">
    <!-- Generator: Sketch 3.2.2 (9983) - http://www.bohemiancoding.com/sketch -->
    <title>Twofingercurveright</title>
    <desc>Created with Sketch.</desc>
    <defs></defs>
    <g id="stroked" stroke="none" stroke-width="1" fill="none" fill-rule="evenodd" sketch:type="MSPage">
        <g id="Interaction" sketch:type="MSLayerGroup" transform="translate(-2.000000, -1564.000000)" stroke="#535353" stroke-width="2" stroke-linecap="round" stroke-linejoin="round">
            <g id="Twocurveright" transform="translate(17.000000, 1566.000000)" sketch:type="MSShapeGroup">
                <path d="M10.9671033,49.3528259 C10.9671033,49.3528259 4.73363496,44.0441269 2.99329613,39.2414338 C1.25145958,34.4387407 1.20053745,31.300923 0.195574144,28.8043368 C-0.807891451,26.3077507 2.32681525,25.3466304 3.33028084,25.8584524 C4.33524415,26.3717284 6.11302573,28.9962701 6.58180891,30.8530788 C7.05059209,32.7098875 6.92478446,34.2468074 7.48792336,34.6946517 L8.16638592,11.2188646 C8.16638592,11.2188646 8.85533245,9 10.597169,9 C12.3375078,9 13.1148192,10.6008977 13.1148192,11.0487419 C13.1148192,11.4980402 13.209175,26.1100013 13.209175,26.1100013 L13.6764604,7.12738652 C13.6764604,7.12738652 14.4387947,5.47995954 16.5146206,5.47995954 C18.5904464,5.47995954 18.7432128,7.59413327 18.7432128,7.59413327 L19.3707533,26.650904 L19.304854,23.8838665 C19.304854,23.8853205 19.6927609,22.2102668 21.8344859,22.2102668 C23.9777087,22.2102668 24.3716064,24.195031 24.3716064,25.3466304 C24.3716064,26.4996839 25,29.8523763 25,29.8523763 C25,29.8523763 25.3960968,25.8584521 27.2727273,25.8584521 C29.14786,25.8584521 30,27.1394614 30,28.6763813 L30,42.3399924 C30,42.3399924 28.9471669,46.7512581 27.2727273,48.8 L27.2727273,50.084644 C27.2727273,52.7993202 25.0736783,55 22.3583904,55 L15.8814402,55 C13.1673269,55 10.9671033,52.8004848 10.9671033,50.0910953 L10.9671033,49.3528259 Z" id="Imported-Layers"></path>
                <path d="M28.4475359,5.4490538 C25.5125226,3.37430459 20.3888481,2 14.5590043,2 C9.71698118,2 5.36209236,2.94803173 2.34371807,4.45801327" id="Oval-1856"></path>
                <path d="M23.0070846,1.31779157 L29.0070846,1.31779157 L29.0070846,7.31779157" id="Rectangle-2541" transform="translate(26.007085, 4.317792) scale(1, -1) rotate(-340.000000) translate(-26.007085, -4.317792) "></path>
            </g>
        </g>
    </g>
</svg>