<?xml version="1.0" encoding="iso-8859-1"?>
<!DOCTYPE svg PUBLIC "-//W3C//DTD SVG 1.1//EN" "http://www.w3.org/Graphics/SVG/1.1/DTD/svg11.dtd">
<svg 
 version="1.1" xmlns="http://www.w3.org/2000/svg" xmlns:xlink="http://www.w3.org/1999/xlink" x="0px" y="0px" width="512px"
	 height="512px" viewBox="0 0 512 512" enable-background="new 0 0 512 512" xml:space="preserve"
><g id="e6c6b53d3c8160b22dad35a0f70a5a72"><g></g><path display="inline" d="M142.567,131.924l6.378,1.15c0.958,0.192,1.277,1.154,1.438,3.271c0.315,7.117,0.635,43.479,0.795,51.171
		c0,9.233,0.319,43.859,0.319,51.363c0,1.542-0.479,2.313-1.594,2.696l-7.017,1.732c-0.479,0-0.799,1.15-0.799,2.305
		c0,0.388,0,0.579,0.479,0.579c3.347-0.191,10.843-0.383,18.978-0.383c7.976,0,14.992,0.191,19.461,0.383
		c0.316,0,0.476-0.191,0.476-0.579c0-0.962-0.476-2.112-0.954-2.305l-7.018-2.116c-1.118-0.388-1.597-0.963-1.597-2.888
		c0-7.695,0.479-34.242,0.639-42.321c1.274,0,4.465,0.192,5.264,0.192c0.639,0,1.114,0.383,1.594,0.962
		c9.253,12.696,18.822,28.471,26.158,41.742c0.959,1.733,0.16,2.504-1.273,2.888l-6.383,1.541c-0.639,0.192-0.958,1.343-0.958,2.305
		c0,0.388,0,0.579,0.479,0.579c7.177-0.191,13.718-0.383,19.776-0.383c8.935,0,13.719,0.191,17.864,0.383
		c0.479,0,0.479-0.191,0.479-0.579c0-0.962-0.32-2.112-1.114-2.5l-6.382-2.116c-1.114-0.384-1.754-1.154-2.393-2.692
		c-6.378-15.774-16.111-37.704-23.447-50.208c8.774-5.004,19.302-15.004,19.302-30.012v-0.192c0-19.813-12.44-31.354-40.672-31.354
		c-15.472,0-30.783,1.538-38.759,2.309c-0.479,0-0.479,0.383-0.479,0.579C141.608,130.574,142.088,131.729,142.567,131.924z
		 M174.465,132.691c0-2.308,1.277-2.883,4.465-2.883c10.847,0,18.343,12.888,18.343,29.429c0,19.238-9.09,33.284-20.735,33.284
		h-0.159c-3.027,0-3.826-0.771-3.826-3.079C172.552,185.979,173.67,147.312,174.465,132.691z M244.418,111.005
		c-0.479-0.264-0.799-1.817-0.799-3.886c0-0.52,0-0.779,0.32-0.779h41.311c0.319,0,0.319,0.259,0.319,1.03
		c0,1.042-0.16,3.371-0.799,3.634l-6.222,1.805c-1.119,0.264-1.598,1.558-1.598,3.626c-0.799,16.566-1.271,59.282-1.43,71.191
		c-0.16,9.577-0.64,66.008-0.64,69.37c0,2.069,0.64,2.588,1.75,3.107l6.541,2.332c0.64,0.256,0.959,2.069,0.959,3.104
		c0,0.523-0.16,0.778-0.479,0.778c-2.716-0.255-11.326-0.519-20.256-0.519c-8.291,0-15.472,0.264-19.138,0.519
		c-0.319,0-0.319-0.255-0.319-0.778c0-1.294,0.319-3.104,0.799-3.362l7.332-2.329c1.118-0.264,1.438-1.038,1.438-3.37
		c0.16-10.352-0.319-54.099-0.479-71.703c-0.159-18.635-0.479-59.283-0.798-66.791c0-2.844-0.479-4.657-1.758-5.176L244.418,111.005
		z M301.129,131.796l6.697,0.958c1.438,0.192,1.917,1.154,1.917,3.271c0.155,7.504,0.635,40.975,0.635,48.479
		c0.16,9.233,0.479,47.134,0.319,53.671c0,2.117-0.639,2.696-1.753,3.079l-6.223,1.733c-0.635,0.192-0.954,1.342-0.954,2.305
		c0,0.388,0.16,0.579,0.479,0.579c4.146-0.191,10.523-0.384,19.457-0.384c8.135,0,16.271,0.192,22.648,0.384
		c0.319,0,0.479-0.191,0.479-0.579c0-0.963-0.64-2.305-1.119-2.305l-10.687-2.313c-1.114-0.191-1.913-0.767-1.913-2.304
		c0-5.967,0.319-32.513,0.639-40.017c0.959,0.384,4.146,0.384,6.378,0.384c26.958,0,42.749-20.775,42.749-39.242
		c0-19.621-11.167-33.279-39.078-33.279c-17.704,0-34.93,1.729-41.151,2.5c-0.319,0-0.319,0.387-0.319,0.771
		C300.33,130.446,300.649,131.796,301.129,131.796z M333.506,133.721c0.159-2.696,2.072-4.042,4.784-4.042
		c11.007,0,18.183,15.583,18.183,31.163c0,20.392-8.29,34.05-19.776,34.05h-0.159c-2.553,0-4.785-0.962-4.625-2.887
		C331.912,187.776,332.87,151.609,333.506,133.721z M440.029,327.663l-20.448,40.895V258.141v-107.35
		c0-82.66-64.41-150.291-143.134-150.291h-40.895c-78.725,0-143.135,67.631-143.135,150.291v107.35v130.865l-20.447-61.343
		L31.075,470.797L44.642,511.5C87.339,499.379,165.986,491.244,256,491.244s168.661,8.135,211.357,20.256l13.567-40.703
		L440.029,327.663z M112.866,258.141v-107.35c0-71.595,55.037-129.843,122.687-129.843h40.895
		c67.649,0,122.687,58.248,122.687,129.843v107.35v151.313l-20.448-122.686l-20.447,122.686l-20.447-61.343l-20.448,61.343
		l-20.447-122.686l-20.448,122.686L256,348.11l-20.447,61.343l-20.448-102.238l-20.447,102.238l-20.448-61.343l-40.896,61.343
		l-20.447-81.79V258.141z"></path></g></svg>