<?xml version="1.0" encoding="iso-8859-1"?>
<!DOCTYPE svg PUBLIC "-//W3C//DTD SVG 1.1//EN" "http://www.w3.org/Graphics/SVG/1.1/DTD/svg11.dtd">
<svg 
 version="1.1" xmlns="http://www.w3.org/2000/svg" xmlns:xlink="http://www.w3.org/1999/xlink" x="0px" y="0px" width="512px"
	 height="512px" viewBox="0 0 512 512" style="enable-background:new 0 0 512 512;" xml:space="preserve"
><g id="afcae5a789ccd549f9c6e2a2f8181178"><g></g><path style="display: inline;" d="M368.012,245.355l48.916,27.85c1.692,14.571,2.583,29.154,2.583,43.534
		c0,7.977-0.346,15.623-0.883,23.081l0.107-0.065l-0.346,3.747l-0.13,1.551l-0.012,0.004l-0.081,0.887
		c-0.768,8.299-1.903,16.253-3.297,23.945l0.184-0.107l-0.833,3.915c-0.015,0.107-0.03,0.215-0.05,0.319l-0.299,1.489l-0.035,0.022
		l-0.299,1.401c-9.535,44.946-30.134,78.711-57.818,101.125C328.051,500.472,293.411,511.5,256,511.5
		c-35.039,0-67.668-9.67-94.408-29.323c-26.31-19.316-46.832-48.302-58.42-86.78l-0.05,0.034l-0.53-1.907
		c-0.007-0.023-0.015-0.042-0.023-0.062l-0.706-2.422l0.034-0.023c-1.662-5.938-3.067-12.134-4.295-18.502l-0.073,0.046
		l-0.503-2.914l-0.33-1.77l0.019-0.008l-0.027-0.169c-2.718-15.711-4.199-32.662-4.199-50.961c0-13.643,0.817-27.47,2.349-41.289
		l32.962,25.957l80.078-56.052l80.066,56.052L368.012,245.355z M394.767,141.612l-0.499-1.351l-1.021-2.764l-0.027,0.008
		c-2.518-6.671-5.193-13.205-8.015-19.592l0.034-0.012l-0.614-1.347c0-0.008,0-0.008-0.008-0.016l-1.189-2.656l-0.027,0.008
		c-14.79-32.375-33.469-60.516-54.965-80.727C306.819,12.841,282.21,0.5,256,0.5c-23.934-0.008-46.551,10.295-66.746,27.558
		c-20.207,17.27-38.099,41.526-52.877,69.871l-3.992,7.662l0.184-0.065c-4.399,8.982-8.506,18.306-12.257,27.945l-3.309,8.476
		l0.192-0.107c-10.998,30.26-18.725,63-22.356,95.763l32.962,25.949l80.078-56.048l80.066,56.048l80.066-56.048l48.916,27.85
		c-3.735-32.087-11.397-64.105-22.176-93.732L394.767,141.612z"></path></g></svg>